<svg width="25" xmlns="http://www.w3.org/2000/svg" height="24" id="screenshot-6ff0b88f-7d7c-80e7-8006-43153dae987a" viewBox="-0 0 25 24" xmlns:xlink="http://www.w3.org/1999/xlink" fill="none" version="1.1"><g id="shape-6ff0b88f-7d7c-80e7-8006-43153dae987a"><g class="frame-container-wrapper"><g class="frame-container-blur"><g class="frame-container-shadows"><g fill="none"><g class="fills" id="fills-6ff0b88f-7d7c-80e7-8006-43153dae987a"><rect rx="0" ry="0" x="0" y="0" width="24" height="24" transform="matrix(1.000000, 0.000000, 0.000000, 1.000000, 0.000000, 0.000000)" class="frame-background"/></g><g class="frame-children"><g id="shape-6ff0b88f-7d7c-80e7-8006-43153dae987b" style="display: none;"><g class="fills" id="fills-6ff0b88f-7d7c-80e7-8006-43153dae987b"><rect width="24" height="24" x="-2.2737367544323206e-13" stroke-linejoin="round" transform="matrix(1.000000, 0.000000, 0.000000, 1.000000, 0.000000, 0.000000)" style="fill: none;" ry="0" fill="none" stroke-linecap="round" rx="0" y="0"/></g><g fill="none" stroke-linejoin="round" stroke-linecap="round" id="strokes-42b6b327-3fd6-8007-8006-45cc701a113a-6ff0b88f-7d7c-80e7-8006-43153dae987b" class="strokes"><g class="inner-stroke-shape" transform="matrix(1.000000, 0.000000, 0.000000, 1.000000, 0.000000, 0.000000)"><defs><clipPath id="inner-stroke-render-2-6ff0b88f-7d7c-80e7-8006-43153dae987b-0"><use href="#stroke-shape-render-2-6ff0b88f-7d7c-80e7-8006-43153dae987b-0"/></clipPath><rect rx="0" ry="0" x="-2.2737367544323206e-13" y="0" width="24" height="24" id="stroke-shape-render-2-6ff0b88f-7d7c-80e7-8006-43153dae987b-0" style="fill: none; stroke-width: 4; stroke: rgb(227, 227, 227); stroke-opacity: 1;"/></defs><use href="#stroke-shape-render-2-6ff0b88f-7d7c-80e7-8006-43153dae987b-0" clip-path="url('#inner-stroke-render-2-6ff0b88f-7d7c-80e7-8006-43153dae987b-0')"/></g></g></g><g id="shape-6ff0b88f-7d7c-80e7-8006-43153dae987c"><g class="fills" id="fills-6ff0b88f-7d7c-80e7-8006-43153dae987c"><path d="M8.000,3.000L2.000,3.000L2.000,18.000L9.000,18.000C10.700,18.000,12.000,19.300,12.000,21.000L12.000,7.000C12.000,4.800,10.200,3.000,8.000,3.000ZZ" fill="none" stroke-linecap="round" stroke-linejoin="round" style="fill: none;"/></g><g fill="none" stroke-linecap="round" stroke-linejoin="round" id="strokes-42b6b327-3fd6-8007-8006-45cc701b19b6-6ff0b88f-7d7c-80e7-8006-43153dae987c" class="strokes"><g class="inner-stroke-shape"><defs><clipPath id="inner-stroke-render-3-6ff0b88f-7d7c-80e7-8006-43153dae987c-0"><use href="#stroke-shape-render-3-6ff0b88f-7d7c-80e7-8006-43153dae987c-0"/></clipPath><path d="M8.000,3.000L2.000,3.000L2.000,18.000L9.000,18.000C10.700,18.000,12.000,19.300,12.000,21.000L12.000,7.000C12.000,4.800,10.200,3.000,8.000,3.000ZZ" id="stroke-shape-render-3-6ff0b88f-7d7c-80e7-8006-43153dae987c-0" style="fill: none; stroke-width: 4; stroke: rgb(227, 227, 227); stroke-opacity: 1;"/></defs><use href="#stroke-shape-render-3-6ff0b88f-7d7c-80e7-8006-43153dae987c-0" clip-path="url('#inner-stroke-render-3-6ff0b88f-7d7c-80e7-8006-43153dae987c-0')"/></g></g></g><g id="shape-6ff0b88f-7d7c-80e7-8006-43153dae987d"><g class="fills" id="fills-6ff0b88f-7d7c-80e7-8006-43153dae987d"><path d="M19.000,10.000L21.000,12.000L25.000,8.000" fill="none" stroke-linecap="round" stroke-linejoin="round" style="fill: none;"/></g><g fill="none" stroke-linecap="round" stroke-linejoin="round" id="strokes-42b6b327-3fd6-8007-8006-45cc701b89b3-6ff0b88f-7d7c-80e7-8006-43153dae987d" class="strokes"><g class="stroke-shape"><path d="M19.000,10.000L21.000,12.000L25.000,8.000" style="fill: none; stroke-width: 2; stroke: rgb(227, 227, 227); stroke-opacity: 1;"/></g></g></g><g id="shape-6ff0b88f-7d7c-80e7-8006-43153dae987e"><g class="fills" id="fills-6ff0b88f-7d7c-80e7-8006-43153dae987e"><path d="M22.000,6.000L22.000,3.000L16.000,3.000C13.800,3.000,12.000,4.800,12.000,7.000L12.000,21.000C12.000,19.300,13.300,18.000,15.000,18.000L22.000,18.000L22.000,15.700" fill="none" stroke-linecap="round" stroke-linejoin="round" style="fill: none;"/></g><g fill="none" stroke-linecap="round" stroke-linejoin="round" id="strokes-42b6b327-3fd6-8007-8006-45cc701bd73a-6ff0b88f-7d7c-80e7-8006-43153dae987e" class="strokes"><g class="stroke-shape"><path d="M22.000,6.000L22.000,3.000L16.000,3.000C13.800,3.000,12.000,4.800,12.000,7.000L12.000,21.000C12.000,19.300,13.300,18.000,15.000,18.000L22.000,18.000L22.000,15.700" style="fill: none; stroke-width: 2; stroke: rgb(227, 227, 227); stroke-opacity: 1;"/></g></g></g></g></g></g></g></g></g></svg>