<svg width="14" xmlns="http://www.w3.org/2000/svg" height="14" id="screenshot-6ff0b88f-7d7c-80e7-8006-43153dae9882" viewBox="0 0 14 14" xmlns:xlink="http://www.w3.org/1999/xlink" fill="none" version="1.1"><g id="shape-6ff0b88f-7d7c-80e7-8006-43153dae9882" rx="0" ry="0"><g id="shape-6ff0b88f-7d7c-80e7-8006-43153dae9883"><g class="fills" id="fills-6ff0b88f-7d7c-80e7-8006-43153dae9883"><path d="M0.679,7.734C0.259,7.992,0.001,8.457,0.000,8.959L0.000,11.280C0.001,11.782,0.259,12.247,0.679,12.506L2.779,13.795C3.223,14.068,3.777,14.068,4.221,13.795L7.000,12.090L7.000,8.149L3.500,6.000L0.679,7.734ZZ" fill="none" stroke-linecap="round" stroke-linejoin="round" style="fill: none;"/></g><g fill="none" stroke-linecap="round" stroke-linejoin="round" id="strokes-2059a552-49c9-80e8-8006-450af38b377b-6ff0b88f-7d7c-80e7-8006-43153dae9883" class="strokes"><g class="inner-stroke-shape"><defs><clipPath id="inner-stroke-render-2-6ff0b88f-7d7c-80e7-8006-43153dae9883-0"><use href="#stroke-shape-render-2-6ff0b88f-7d7c-80e7-8006-43153dae9883-0"/></clipPath><path d="M0.679,7.734C0.259,7.992,0.001,8.457,0.000,8.959L0.000,11.280C0.001,11.782,0.259,12.247,0.679,12.506L2.779,13.795C3.223,14.068,3.777,14.068,4.221,13.795L7.000,12.090L7.000,8.149L3.500,6.000L0.679,7.734ZZ" id="stroke-shape-render-2-6ff0b88f-7d7c-80e7-8006-43153dae9883-0" style="fill: none; stroke-width: 2; stroke: rgb(227, 227, 227); stroke-opacity: 1;"/></defs><use href="#stroke-shape-render-2-6ff0b88f-7d7c-80e7-8006-43153dae9883-0" clip-path="url('#inner-stroke-render-2-6ff0b88f-7d7c-80e7-8006-43153dae9883-0')"/></g></g></g><g id="shape-6ff0b88f-7d7c-80e7-8006-43153dae9884"><g class="fills" id="fills-6ff0b88f-7d7c-80e7-8006-43153dae9884"><path d="M3.000,10.000L0.500,8.500" fill="none" stroke-linecap="round" stroke-linejoin="round" style="fill: none;"/></g><g fill="none" stroke-linecap="round" stroke-linejoin="round" id="strokes-2059a552-49c9-80e8-8006-450af38bd5cf-6ff0b88f-7d7c-80e7-8006-43153dae9884" class="strokes"><g class="stroke-shape"><path d="M3.000,10.000L0.500,8.500" style="fill: none; stroke-width: 1; stroke: rgb(227, 227, 227); stroke-opacity: 1;"/></g></g></g><g id="shape-6ff0b88f-7d7c-80e7-8006-43153dae9885"><g class="fills" id="fills-6ff0b88f-7d7c-80e7-8006-43153dae9885"><path d="M3.000,10.000L7.000,8.000" fill="none" stroke-linecap="round" stroke-linejoin="round" style="fill: none;"/></g><g fill="none" stroke-linecap="round" stroke-linejoin="round" id="strokes-2059a552-49c9-80e8-8006-450af38c4047-6ff0b88f-7d7c-80e7-8006-43153dae9885" class="strokes"><g class="stroke-shape"><path d="M3.000,10.000L7.000,8.000" style="fill: none; stroke-width: 1; stroke: rgb(227, 227, 227); stroke-opacity: 1;"/></g></g></g><g id="shape-6ff0b88f-7d7c-80e7-8006-43153dae9886"><g class="fills" id="fills-6ff0b88f-7d7c-80e7-8006-43153dae9886"><path d="M3.000,10.000L3.000,13.000" fill="none" stroke-linecap="round" stroke-linejoin="round" style="fill: none;"/></g><g fill="none" stroke-linecap="round" stroke-linejoin="round" id="strokes-2059a552-49c9-80e8-8006-450af38cb422-6ff0b88f-7d7c-80e7-8006-43153dae9886" class="strokes"><g class="stroke-shape"><path d="M3.000,10.000L3.000,13.000" style="fill: none; stroke-width: 1; stroke: rgb(227, 227, 227); stroke-opacity: 1;"/></g></g></g><g id="shape-6ff0b88f-7d7c-80e7-8006-43153dae9887"><g class="fills" id="fills-6ff0b88f-7d7c-80e7-8006-43153dae9887"><path d="M7.000,8.149L7.000,12.090L9.779,13.795C10.223,14.068,10.777,14.068,11.221,13.795L13.321,12.506C13.741,12.247,13.999,11.782,14.000,11.280L14.000,8.959C13.999,8.457,13.741,7.992,13.321,7.734L10.500,6.000L7.000,8.149ZZ" fill="none" stroke-linecap="round" stroke-linejoin="round" style="fill: none;"/></g><g fill="none" stroke-linecap="round" stroke-linejoin="round" id="strokes-2059a552-49c9-80e8-8006-450af38d3987-6ff0b88f-7d7c-80e7-8006-43153dae9887" class="strokes"><g class="inner-stroke-shape"><defs><clipPath id="inner-stroke-render-6-6ff0b88f-7d7c-80e7-8006-43153dae9887-0"><use href="#stroke-shape-render-6-6ff0b88f-7d7c-80e7-8006-43153dae9887-0"/></clipPath><path d="M7.000,8.149L7.000,12.090L9.779,13.795C10.223,14.068,10.777,14.068,11.221,13.795L13.321,12.506C13.741,12.247,13.999,11.782,14.000,11.280L14.000,8.959C13.999,8.457,13.741,7.992,13.321,7.734L10.500,6.000L7.000,8.149ZZ" id="stroke-shape-render-6-6ff0b88f-7d7c-80e7-8006-43153dae9887-0" style="fill: none; stroke-width: 2; stroke: rgb(227, 227, 227); stroke-opacity: 1;"/></defs><use href="#stroke-shape-render-6-6ff0b88f-7d7c-80e7-8006-43153dae9887-0" clip-path="url('#inner-stroke-render-6-6ff0b88f-7d7c-80e7-8006-43153dae9887-0')"/></g></g></g><g id="shape-6ff0b88f-7d7c-80e7-8006-43153dae9888"><g class="fills" id="fills-6ff0b88f-7d7c-80e7-8006-43153dae9888"><path d="M10.000,10.000L7.000,8.000" fill="none" stroke-linecap="round" stroke-linejoin="round" style="fill: none;"/></g><g fill="none" stroke-linecap="round" stroke-linejoin="round" id="strokes-2059a552-49c9-80e8-8006-450af38d59e0-6ff0b88f-7d7c-80e7-8006-43153dae9888" class="strokes"><g class="stroke-shape"><path d="M10.000,10.000L7.000,8.000" style="fill: none; stroke-width: 1; stroke: rgb(227, 227, 227); stroke-opacity: 1;"/></g></g></g><g id="shape-6ff0b88f-7d7c-80e7-8006-43153dae9889"><g class="fills" id="fills-6ff0b88f-7d7c-80e7-8006-43153dae9889"><path d="M10.000,10.000L13.500,8.500" fill="none" stroke-linecap="round" stroke-linejoin="round" style="fill: none;"/></g><g fill="none" stroke-linecap="round" stroke-linejoin="round" id="strokes-2059a552-49c9-80e8-8006-450af38d957f-6ff0b88f-7d7c-80e7-8006-43153dae9889" class="strokes"><g class="stroke-shape"><path d="M10.000,10.000L13.500,8.500" style="fill: none; stroke-width: 1; stroke: rgb(227, 227, 227); stroke-opacity: 1;"/></g></g></g><g id="shape-6ff0b88f-7d7c-80e7-8006-43153dae988a"><g class="fills" id="fills-6ff0b88f-7d7c-80e7-8006-43153dae988a"><path d="M10.000,10.000L10.000,13.000" fill="none" stroke-linecap="round" stroke-linejoin="round" style="fill: none;"/></g><g fill="none" stroke-linecap="round" stroke-linejoin="round" id="strokes-2059a552-49c9-80e8-8006-450af38e1a30-6ff0b88f-7d7c-80e7-8006-43153dae988a" class="strokes"><g class="stroke-shape"><path d="M10.000,10.000L10.000,13.000" style="fill: none; stroke-width: 1; stroke: rgb(227, 227, 227); stroke-opacity: 1;"/></g></g></g><g id="shape-6ff0b88f-7d7c-80e7-8006-43153dae988b"><g class="fills" id="fills-6ff0b88f-7d7c-80e7-8006-43153dae988b"><path d="M3.728,1.588C3.277,1.862,3.001,2.356,3.000,2.889L3.000,6.216L6.750,8.500L10.500,6.216L10.500,2.889C10.499,2.356,10.223,1.862,9.772,1.588L7.522,0.217C7.047,-0.072,6.453,-0.072,5.978,0.217L3.728,1.588ZZ" fill="none" stroke-linecap="round" stroke-linejoin="round" style="fill: none;"/></g><g fill="none" stroke-linecap="round" stroke-linejoin="round" id="strokes-2059a552-49c9-80e8-8006-450af38e64c3-6ff0b88f-7d7c-80e7-8006-43153dae988b" class="strokes"><g class="inner-stroke-shape"><defs><clipPath id="inner-stroke-render-10-6ff0b88f-7d7c-80e7-8006-43153dae988b-0"><use href="#stroke-shape-render-10-6ff0b88f-7d7c-80e7-8006-43153dae988b-0"/></clipPath><path d="M3.728,1.588C3.277,1.862,3.001,2.356,3.000,2.889L3.000,6.216L6.750,8.500L10.500,6.216L10.500,2.889C10.499,2.356,10.223,1.862,9.772,1.588L7.522,0.217C7.047,-0.072,6.453,-0.072,5.978,0.217L3.728,1.588ZZ" id="stroke-shape-render-10-6ff0b88f-7d7c-80e7-8006-43153dae988b-0" style="fill: none; stroke-width: 2; stroke: rgb(227, 227, 227); stroke-opacity: 1;"/></defs><use href="#stroke-shape-render-10-6ff0b88f-7d7c-80e7-8006-43153dae988b-0" clip-path="url('#inner-stroke-render-10-6ff0b88f-7d7c-80e7-8006-43153dae988b-0')"/></g></g></g><g id="shape-6ff0b88f-7d7c-80e7-8006-43153dae988c"><g class="fills" id="fills-6ff0b88f-7d7c-80e7-8006-43153dae988c"><path d="M7.000,4.000L3.500,2.500" fill="none" stroke-linecap="round" stroke-linejoin="round" style="fill: none;"/></g><g fill="none" stroke-linecap="round" stroke-linejoin="round" id="strokes-2059a552-49c9-80e8-8006-450af38efac0-6ff0b88f-7d7c-80e7-8006-43153dae988c" class="strokes"><g class="stroke-shape"><path d="M7.000,4.000L3.500,2.500" style="fill: none; stroke-width: 1; stroke: rgb(227, 227, 227); stroke-opacity: 1;"/></g></g></g><g id="shape-6ff0b88f-7d7c-80e7-8006-43153dae988d"><g class="fills" id="fills-6ff0b88f-7d7c-80e7-8006-43153dae988d"><path d="M7.000,4.000L9.500,2.500" fill="none" stroke-linecap="round" stroke-linejoin="round" style="fill: none;"/></g><g fill="none" stroke-linecap="round" stroke-linejoin="round" id="strokes-2059a552-49c9-80e8-8006-450af38f1c80-6ff0b88f-7d7c-80e7-8006-43153dae988d" class="strokes"><g class="stroke-shape"><path d="M7.000,4.000L9.500,2.500" style="fill: none; stroke-width: 1; stroke: rgb(227, 227, 227); stroke-opacity: 1;"/></g></g></g><g id="shape-6ff0b88f-7d7c-80e7-8006-43153dae988e"><g class="fills" id="fills-6ff0b88f-7d7c-80e7-8006-43153dae988e"><path d="M7.000,8.000L7.000,4.000" fill="none" stroke-linecap="round" stroke-linejoin="round" style="fill: none;"/></g><g fill="none" stroke-linecap="round" stroke-linejoin="round" id="strokes-2059a552-49c9-80e8-8006-450af38f5dde-6ff0b88f-7d7c-80e7-8006-43153dae988e" class="strokes"><g class="stroke-shape"><path d="M7.000,8.000L7.000,4.000" style="fill: none; stroke-width: 1; stroke: rgb(227, 227, 227); stroke-opacity: 1;"/></g></g></g></g></svg>